<svg width="450" height="675" viewBox="0 0 450 675" fill="none" xmlns="http://www.w3.org/2000/svg">
<g clip-path="url(#clip0_24_63)">
<g filter="url(#filter0_i_24_63)">
<path d="M450 225H0V675H450V225Z" fill="#232323"/>
<path d="M225 450C349.264 450 450 349.264 450 225C450 100.736 349.264 0 225 0C100.736 0 0 100.736 0 225C0 349.264 100.736 450 225 450Z" fill="#232323"/>
</g>
<g filter="url(#filter1_i_24_63)">
<path d="M450 233.699H40.9502V647.55H450V233.699Z" fill="#2F2F2F"/>
<path d="M245.475 440.401C358.431 440.401 450 347.757 450 233.475C450 119.194 358.431 26.55 245.475 26.55C132.519 26.55 40.9502 119.194 40.9502 233.475C40.9502 347.757 132.519 440.401 245.475 440.401Z" fill="#2F2F2F"/>
</g>
<g filter="url(#filter2_i_24_63)">
<path d="M450 238.5H88.6499V612H450V238.5Z" fill="#353535"/>
<path d="M269.325 425.25C369.109 425.25 450 341.639 450 238.5C450 135.361 369.109 51.75 269.325 51.75C169.541 51.75 88.6499 135.361 88.6499 238.5C88.6499 341.639 169.541 425.25 269.325 425.25Z" fill="#353535"/>
</g>
<g filter="url(#filter3_i_24_63)">
<path d="M450 246.445H126.45V583.2H450V246.445Z" fill="#3F3F3F"/>
<path d="M288.225 414.605C377.571 414.605 450 339.22 450 246.227C450 153.235 377.571 77.85 288.225 77.85C198.879 77.85 126.45 153.235 126.45 246.227C126.45 339.22 198.879 414.605 288.225 414.605Z" fill="#3F3F3F"/>
</g>
<g filter="url(#filter4_i_24_63)">
<path d="M450 256.05H160.65V558.45H450V256.05Z" fill="#454545"/>
<path d="M305.325 407.25C385.227 407.25 450 339.555 450 256.05C450 172.545 385.227 104.85 305.325 104.85C225.423 104.85 160.65 172.545 160.65 256.05C160.65 339.555 225.423 407.25 305.325 407.25Z" fill="#454545"/>
</g>
<g filter="url(#filter5_i_24_63)">
<path d="M450 266.245H188.1V538.2H450V266.245Z" fill="#4F4F4F"/>
<path d="M319.05 402.005C391.372 402.005 450 341.126 450 266.027C450 190.929 391.372 130.05 319.05 130.05C246.728 130.05 188.1 190.929 188.1 266.027C188.1 341.126 246.728 402.005 319.05 402.005Z" fill="#4F4F4F"/>
</g>
<g filter="url(#filter6_i_24_63)">
<path d="M450 278.1H211.95V521.1H450V278.1Z" fill="#555555"/>
<path d="M330.975 399.6C396.711 399.6 450 345.203 450 278.1C450 210.997 396.711 156.6 330.975 156.6C265.24 156.6 211.95 210.997 211.95 278.1C211.95 345.203 265.24 399.6 330.975 399.6Z" fill="#555555"/>
</g>
<g filter="url(#filter7_i_24_63)">
<path d="M450 289.8H236.25V503.55H450V289.8Z" fill="#5A5A5A"/>
<path d="M343.125 396.45C402.15 396.45 450 348.6 450 289.575C450 230.55 402.15 182.7 343.125 182.7C284.1 182.7 236.25 230.55 236.25 289.575C236.25 348.6 284.1 396.45 343.125 396.45Z" fill="#5A5A5A"/>
</g>
<g filter="url(#filter8_i_24_63)">
<path d="M450 295.65H258.75V486.9H450V295.65Z" fill="#636363"/>
<path d="M354.375 391.05C407.187 391.05 450 348.237 450 295.425C450 242.613 407.187 199.8 354.375 199.8C301.563 199.8 258.75 242.613 258.75 295.425C258.75 348.237 301.563 391.05 354.375 391.05Z" fill="#636363"/>
</g>
<g filter="url(#filter9_i_24_63)">
<path d="M450 301.95H281.25V470.7H450V301.95Z" fill="#696969"/>
<path d="M365.625 386.1C412.224 386.1 450 348.324 450 301.725C450 255.126 412.224 217.35 365.625 217.35C319.026 217.35 281.25 255.126 281.25 301.725C281.25 348.324 319.026 386.1 365.625 386.1Z" fill="#696969"/>
</g>
<g filter="url(#filter10_i_24_63)">
<path d="M450 308.7H303.75V454.95H450V308.7Z" fill="#6F6F6F"/>
<path d="M376.875 381.6C417.261 381.6 450 348.861 450 308.475C450 268.089 417.261 235.35 376.875 235.35C336.489 235.35 303.75 268.089 303.75 308.475C303.75 348.861 336.489 381.6 376.875 381.6Z" fill="#6F6F6F"/>
</g>
<g filter="url(#filter11_i_24_63)">
<path d="M450 315.45H319.5V441.45H450V315.45Z" fill="#757575"/>
<path d="M384.75 378.45C420.787 378.45 450 350.244 450 315.45C450 280.656 420.787 252.45 384.75 252.45C348.713 252.45 319.5 280.656 319.5 315.45C319.5 350.244 348.713 378.45 384.75 378.45Z" fill="#757575"/>
</g>
<g filter="url(#filter12_i_24_63)">
<path d="M450 321.15H333.9V431.55H450V321.15Z" fill="#797979"/>
<path d="M391.95 376.35C424.01 376.35 450 351.636 450 321.15C450 290.664 424.01 265.95 391.95 265.95C359.89 265.95 333.9 290.664 333.9 321.15C333.9 351.636 359.89 376.35 391.95 376.35Z" fill="#797979"/>
</g>
<g filter="url(#filter13_i_24_63)">
<path d="M450 326.85H345.6V423.45H450V326.85Z" fill="#7F7F7F"/>
<path d="M397.8 375.15C426.629 375.15 450 353.525 450 326.85C450 300.175 426.629 278.55 397.8 278.55C368.971 278.55 345.6 300.175 345.6 326.85C345.6 353.525 368.971 375.15 397.8 375.15Z" fill="#7F7F7F"/>
</g>
<path d="M450 331.95H356.4V416.25H450V331.95Z" fill="#838383"/>
<path d="M403.2 374.1C429.047 374.1 450 355.229 450 331.95C450 308.671 429.047 289.8 403.2 289.8C377.353 289.8 356.4 308.671 356.4 331.95C356.4 355.229 377.353 374.1 403.2 374.1Z" fill="#838383"/>
<path d="M450 335.25H364.95V409.95H450V335.25Z" fill="#898989"/>
<path d="M407.475 372.6C430.961 372.6 450 355.878 450 335.25C450 314.622 430.961 297.9 407.475 297.9C383.989 297.9 364.95 314.622 364.95 335.25C364.95 355.878 383.989 372.6 407.475 372.6Z" fill="#898989"/>
<path d="M450 338.85H372.15V404.55H450V338.85Z" fill="#8F8F8F"/>
<path d="M411.075 371.7C432.573 371.7 450 356.993 450 338.85C450 320.707 432.573 306 411.075 306C389.577 306 372.15 320.707 372.15 338.85C372.15 356.993 389.577 371.7 411.075 371.7Z" fill="#8F8F8F"/>
<path d="M450 341.4H379.35V399.6H450V341.4Z" fill="#959595"/>
<path d="M414.675 370.5C434.185 370.5 450 357.472 450 341.4C450 325.329 434.185 312.3 414.675 312.3C395.166 312.3 379.35 325.329 379.35 341.4C379.35 357.472 395.166 370.5 414.675 370.5Z" fill="#959595"/>
<path d="M448.65 347.843H385.65V394.2H448.65V347.843Z" fill="#9F9F9F"/>
<path d="M417.15 376.412C434.547 376.412 448.65 363.47 448.65 347.506C448.65 331.541 434.547 318.6 417.15 318.6C399.753 318.6 385.65 331.541 385.65 347.506C385.65 363.47 399.753 376.412 417.15 376.412Z" fill="#9F9F9F"/>
<path d="M445.05 350.511H391.95V388.8H445.05V350.511Z" fill="#A5A5A5"/>
<path d="M418.5 375.487C433.163 375.487 445.05 364.163 445.05 350.194C445.05 336.224 433.163 324.9 418.5 324.9C403.837 324.9 391.95 336.224 391.95 350.194C391.95 364.163 403.837 375.487 418.5 375.487Z" fill="#A5A5A5"/>
</g>
<defs>
<filter id="filter0_i_24_63" x="0" y="0" width="450" height="679" filterUnits="userSpaceOnUse" color-interpolation-filters="sRGB">
<feFlood flood-opacity="0" result="BackgroundImageFix"/>
<feBlend mode="normal" in="SourceGraphic" in2="BackgroundImageFix" result="shape"/>
<feColorMatrix in="SourceAlpha" type="matrix" values="0 0 0 0 0 0 0 0 0 0 0 0 0 0 0 0 0 0 127 0" result="hardAlpha"/>
<feOffset dy="4"/>
<feGaussianBlur stdDeviation="2"/>
<feComposite in2="hardAlpha" operator="arithmetic" k2="-1" k3="1"/>
<feColorMatrix type="matrix" values="0 0 0 0 0 0 0 0 0 0 0 0 0 0 0 0 0 0 0.25 0"/>
<feBlend mode="normal" in2="shape" result="effect1_innerShadow_24_63"/>
</filter>
<filter id="filter1_i_24_63" x="40.9502" y="26.55" width="409.05" height="625" filterUnits="userSpaceOnUse" color-interpolation-filters="sRGB">
<feFlood flood-opacity="0" result="BackgroundImageFix"/>
<feBlend mode="normal" in="SourceGraphic" in2="BackgroundImageFix" result="shape"/>
<feColorMatrix in="SourceAlpha" type="matrix" values="0 0 0 0 0 0 0 0 0 0 0 0 0 0 0 0 0 0 127 0" result="hardAlpha"/>
<feOffset dy="6"/>
<feGaussianBlur stdDeviation="2"/>
<feComposite in2="hardAlpha" operator="arithmetic" k2="-1" k3="1"/>
<feColorMatrix type="matrix" values="0 0 0 0 0 0 0 0 0 0 0 0 0 0 0 0 0 0 0.25 0"/>
<feBlend mode="normal" in2="shape" result="effect1_innerShadow_24_63"/>
</filter>
<filter id="filter2_i_24_63" x="88.6499" y="51.75" width="361.35" height="564.25" filterUnits="userSpaceOnUse" color-interpolation-filters="sRGB">
<feFlood flood-opacity="0" result="BackgroundImageFix"/>
<feBlend mode="normal" in="SourceGraphic" in2="BackgroundImageFix" result="shape"/>
<feColorMatrix in="SourceAlpha" type="matrix" values="0 0 0 0 0 0 0 0 0 0 0 0 0 0 0 0 0 0 127 0" result="hardAlpha"/>
<feOffset dy="4"/>
<feGaussianBlur stdDeviation="2"/>
<feComposite in2="hardAlpha" operator="arithmetic" k2="-1" k3="1"/>
<feColorMatrix type="matrix" values="0 0 0 0 0 0 0 0 0 0 0 0 0 0 0 0 0 0 0.25 0"/>
<feBlend mode="normal" in2="shape" result="effect1_innerShadow_24_63"/>
</filter>
<filter id="filter3_i_24_63" x="126.45" y="77.85" width="323.55" height="509.35" filterUnits="userSpaceOnUse" color-interpolation-filters="sRGB">
<feFlood flood-opacity="0" result="BackgroundImageFix"/>
<feBlend mode="normal" in="SourceGraphic" in2="BackgroundImageFix" result="shape"/>
<feColorMatrix in="SourceAlpha" type="matrix" values="0 0 0 0 0 0 0 0 0 0 0 0 0 0 0 0 0 0 127 0" result="hardAlpha"/>
<feOffset dy="4"/>
<feGaussianBlur stdDeviation="2"/>
<feComposite in2="hardAlpha" operator="arithmetic" k2="-1" k3="1"/>
<feColorMatrix type="matrix" values="0 0 0 0 0 0 0 0 0 0 0 0 0 0 0 0 0 0 0.25 0"/>
<feBlend mode="normal" in2="shape" result="effect1_innerShadow_24_63"/>
</filter>
<filter id="filter4_i_24_63" x="160.65" y="104.85" width="289.35" height="456.6" filterUnits="userSpaceOnUse" color-interpolation-filters="sRGB">
<feFlood flood-opacity="0" result="BackgroundImageFix"/>
<feBlend mode="normal" in="SourceGraphic" in2="BackgroundImageFix" result="shape"/>
<feColorMatrix in="SourceAlpha" type="matrix" values="0 0 0 0 0 0 0 0 0 0 0 0 0 0 0 0 0 0 127 0" result="hardAlpha"/>
<feOffset dy="3"/>
<feGaussianBlur stdDeviation="2"/>
<feComposite in2="hardAlpha" operator="arithmetic" k2="-1" k3="1"/>
<feColorMatrix type="matrix" values="0 0 0 0 0 0 0 0 0 0 0 0 0 0 0 0 0 0 0.25 0"/>
<feBlend mode="normal" in2="shape" result="effect1_innerShadow_24_63"/>
</filter>
<filter id="filter5_i_24_63" x="188.1" y="130.05" width="261.9" height="411.15" filterUnits="userSpaceOnUse" color-interpolation-filters="sRGB">
<feFlood flood-opacity="0" result="BackgroundImageFix"/>
<feBlend mode="normal" in="SourceGraphic" in2="BackgroundImageFix" result="shape"/>
<feColorMatrix in="SourceAlpha" type="matrix" values="0 0 0 0 0 0 0 0 0 0 0 0 0 0 0 0 0 0 127 0" result="hardAlpha"/>
<feOffset dy="3"/>
<feGaussianBlur stdDeviation="2"/>
<feComposite in2="hardAlpha" operator="arithmetic" k2="-1" k3="1"/>
<feColorMatrix type="matrix" values="0 0 0 0 0 0 0 0 0 0 0 0 0 0 0 0 0 0 0.25 0"/>
<feBlend mode="normal" in2="shape" result="effect1_innerShadow_24_63"/>
</filter>
<filter id="filter6_i_24_63" x="211.95" y="156.6" width="238.05" height="367.5" filterUnits="userSpaceOnUse" color-interpolation-filters="sRGB">
<feFlood flood-opacity="0" result="BackgroundImageFix"/>
<feBlend mode="normal" in="SourceGraphic" in2="BackgroundImageFix" result="shape"/>
<feColorMatrix in="SourceAlpha" type="matrix" values="0 0 0 0 0 0 0 0 0 0 0 0 0 0 0 0 0 0 127 0" result="hardAlpha"/>
<feOffset dy="3"/>
<feGaussianBlur stdDeviation="2.5"/>
<feComposite in2="hardAlpha" operator="arithmetic" k2="-1" k3="1"/>
<feColorMatrix type="matrix" values="0 0 0 0 0 0 0 0 0 0 0 0 0 0 0 0 0 0 0.25 0"/>
<feBlend mode="normal" in2="shape" result="effect1_innerShadow_24_63"/>
</filter>
<filter id="filter7_i_24_63" x="236.25" y="182.7" width="213.75" height="322.85" filterUnits="userSpaceOnUse" color-interpolation-filters="sRGB">
<feFlood flood-opacity="0" result="BackgroundImageFix"/>
<feBlend mode="normal" in="SourceGraphic" in2="BackgroundImageFix" result="shape"/>
<feColorMatrix in="SourceAlpha" type="matrix" values="0 0 0 0 0 0 0 0 0 0 0 0 0 0 0 0 0 0 127 0" result="hardAlpha"/>
<feOffset dy="2"/>
<feGaussianBlur stdDeviation="2"/>
<feComposite in2="hardAlpha" operator="arithmetic" k2="-1" k3="1"/>
<feColorMatrix type="matrix" values="0 0 0 0 0 0 0 0 0 0 0 0 0 0 0 0 0 0 0.25 0"/>
<feBlend mode="normal" in2="shape" result="effect1_innerShadow_24_63"/>
</filter>
<filter id="filter8_i_24_63" x="258.75" y="199.8" width="191.25" height="289.1" filterUnits="userSpaceOnUse" color-interpolation-filters="sRGB">
<feFlood flood-opacity="0" result="BackgroundImageFix"/>
<feBlend mode="normal" in="SourceGraphic" in2="BackgroundImageFix" result="shape"/>
<feColorMatrix in="SourceAlpha" type="matrix" values="0 0 0 0 0 0 0 0 0 0 0 0 0 0 0 0 0 0 127 0" result="hardAlpha"/>
<feOffset dy="2"/>
<feGaussianBlur stdDeviation="2"/>
<feComposite in2="hardAlpha" operator="arithmetic" k2="-1" k3="1"/>
<feColorMatrix type="matrix" values="0 0 0 0 0 0 0 0 0 0 0 0 0 0 0 0 0 0 0.25 0"/>
<feBlend mode="normal" in2="shape" result="effect1_innerShadow_24_63"/>
</filter>
<filter id="filter9_i_24_63" x="281.25" y="217.35" width="168.75" height="255.35" filterUnits="userSpaceOnUse" color-interpolation-filters="sRGB">
<feFlood flood-opacity="0" result="BackgroundImageFix"/>
<feBlend mode="normal" in="SourceGraphic" in2="BackgroundImageFix" result="shape"/>
<feColorMatrix in="SourceAlpha" type="matrix" values="0 0 0 0 0 0 0 0 0 0 0 0 0 0 0 0 0 0 127 0" result="hardAlpha"/>
<feOffset dy="2"/>
<feGaussianBlur stdDeviation="2"/>
<feComposite in2="hardAlpha" operator="arithmetic" k2="-1" k3="1"/>
<feColorMatrix type="matrix" values="0 0 0 0 0 0 0 0 0 0 0 0 0 0 0 0 0 0 0.25 0"/>
<feBlend mode="normal" in2="shape" result="effect1_innerShadow_24_63"/>
</filter>
<filter id="filter10_i_24_63" x="303.75" y="235.35" width="146.25" height="220.6" filterUnits="userSpaceOnUse" color-interpolation-filters="sRGB">
<feFlood flood-opacity="0" result="BackgroundImageFix"/>
<feBlend mode="normal" in="SourceGraphic" in2="BackgroundImageFix" result="shape"/>
<feColorMatrix in="SourceAlpha" type="matrix" values="0 0 0 0 0 0 0 0 0 0 0 0 0 0 0 0 0 0 127 0" result="hardAlpha"/>
<feOffset dy="1"/>
<feGaussianBlur stdDeviation="2"/>
<feComposite in2="hardAlpha" operator="arithmetic" k2="-1" k3="1"/>
<feColorMatrix type="matrix" values="0 0 0 0 0 0 0 0 0 0 0 0 0 0 0 0 0 0 0.25 0"/>
<feBlend mode="normal" in2="shape" result="effect1_innerShadow_24_63"/>
</filter>
<filter id="filter11_i_24_63" x="319.5" y="252.45" width="130.5" height="190" filterUnits="userSpaceOnUse" color-interpolation-filters="sRGB">
<feFlood flood-opacity="0" result="BackgroundImageFix"/>
<feBlend mode="normal" in="SourceGraphic" in2="BackgroundImageFix" result="shape"/>
<feColorMatrix in="SourceAlpha" type="matrix" values="0 0 0 0 0 0 0 0 0 0 0 0 0 0 0 0 0 0 127 0" result="hardAlpha"/>
<feOffset dy="1"/>
<feGaussianBlur stdDeviation="2"/>
<feComposite in2="hardAlpha" operator="arithmetic" k2="-1" k3="1"/>
<feColorMatrix type="matrix" values="0 0 0 0 0 0 0 0 0 0 0 0 0 0 0 0 0 0 0.25 0"/>
<feBlend mode="normal" in2="shape" result="effect1_innerShadow_24_63"/>
</filter>
<filter id="filter12_i_24_63" x="333.9" y="265.95" width="116.1" height="166.6" filterUnits="userSpaceOnUse" color-interpolation-filters="sRGB">
<feFlood flood-opacity="0" result="BackgroundImageFix"/>
<feBlend mode="normal" in="SourceGraphic" in2="BackgroundImageFix" result="shape"/>
<feColorMatrix in="SourceAlpha" type="matrix" values="0 0 0 0 0 0 0 0 0 0 0 0 0 0 0 0 0 0 127 0" result="hardAlpha"/>
<feOffset dy="1"/>
<feGaussianBlur stdDeviation="1.5"/>
<feComposite in2="hardAlpha" operator="arithmetic" k2="-1" k3="1"/>
<feColorMatrix type="matrix" values="0 0 0 0 0 0 0 0 0 0 0 0 0 0 0 0 0 0 0.25 0"/>
<feBlend mode="normal" in2="shape" result="effect1_innerShadow_24_63"/>
</filter>
<filter id="filter13_i_24_63" x="345.6" y="278.55" width="104.4" height="144.9" filterUnits="userSpaceOnUse" color-interpolation-filters="sRGB">
<feFlood flood-opacity="0" result="BackgroundImageFix"/>
<feBlend mode="normal" in="SourceGraphic" in2="BackgroundImageFix" result="shape"/>
<feColorMatrix in="SourceAlpha" type="matrix" values="0 0 0 0 0 0 0 0 0 0 0 0 0 0 0 0 0 0 127 0" result="hardAlpha"/>
<feOffset/>
<feGaussianBlur stdDeviation="1"/>
<feComposite in2="hardAlpha" operator="arithmetic" k2="-1" k3="1"/>
<feColorMatrix type="matrix" values="0 0 0 0 0 0 0 0 0 0 0 0 0 0 0 0 0 0 0.25 0"/>
<feBlend mode="normal" in2="shape" result="effect1_innerShadow_24_63"/>
</filter>
<clipPath id="clip0_24_63">
<rect width="450" height="675" fill="white"/>
</clipPath>
</defs>
</svg>
