<svg width="400" height="75" viewBox="0 0 400 75" fill="none" xmlns="http://www.w3.org/2000/svg">
<g clip-path="url(#clip0_471_80)">
<path d="M12.0527 25.3927C12.0527 12.0477 22.3739 1.22955 35.1056 1.22955V36.2024H12.0527V25.3927Z" fill="#2C73FE" stroke="#2C73FE" stroke-width="0.805851"/>
<path d="M35.1056 36.2024H12.0527V38.8107H35.1056V36.2024Z" fill="#2C73FE" stroke="#2C73FE" stroke-width="0.805851"/>
<path fill-rule="evenodd" clip-rule="evenodd" d="M12.4711 54.2271C12.1965 52.7358 12.0527 51.1957 12.0527 49.6205V38.8107H35.1056V73.7835C29.5232 73.7835 24.4041 71.7038 20.4155 68.2431C16.4362 71.0218 10.0553 73.663 2.34619 72.1939C4.46949 71.24 12.6594 65.5173 12.356 54.0716C12.3928 54.1247 12.4312 54.1764 12.4711 54.2271Z" fill="#2C73FE"/>
<path d="M12.4712 54.2271L12.1067 54.5426L12.9352 54.1332L12.4712 54.2271ZM12.0528 38.8107V38.3153H11.5801V38.8107H12.0528ZM35.1057 38.8107H35.5783V38.3153H35.1057V38.8107ZM35.1057 73.7835V74.279H35.5783V73.7835H35.1057ZM20.4156 68.2431L20.7169 67.8615L20.4461 67.6265L20.1535 67.8309L20.4156 68.2431ZM2.34626 72.1939L2.16008 71.7386L0.716797 72.3869L2.26171 72.6813L2.34626 72.1939ZM12.3561 54.0716L12.7383 53.7802L11.8413 52.4875L11.8836 54.0853L12.3561 54.0716ZM11.5801 49.6205C11.5801 51.2275 11.7268 52.7989 12.0071 54.3209L12.9352 54.1332C12.6663 52.6727 12.5254 51.1641 12.5254 49.6205H11.5801ZM11.5801 38.8107V49.6205H12.5254V38.8107H11.5801ZM35.1057 38.3153H12.0528V39.3061H35.1057V38.3153ZM35.5783 73.7835V38.8107H34.6331V73.7835H35.5783ZM20.1141 68.6248C24.1845 72.1561 29.4091 74.279 35.1057 74.279V73.2882C29.6373 73.2882 24.624 71.2514 20.7169 67.8615L20.1141 68.6248ZM2.26171 72.6813C10.1214 74.1792 16.625 71.4852 20.6775 68.6554L20.1535 67.8309C16.2474 70.5584 9.98937 73.147 2.43081 71.7065L2.26171 72.6813ZM11.8836 54.0853C12.0317 59.6715 10.1098 63.852 7.89209 66.7577C5.66508 69.6755 3.14932 71.2941 2.16008 71.7386L2.53244 72.6493C3.66649 72.1398 6.30731 70.4202 8.63022 67.3767C10.9624 64.3211 12.9838 59.9174 12.8285 54.0579L11.8836 54.0853ZM12.8355 53.9115C12.8017 53.8686 12.7692 53.8249 12.7383 53.7802L11.9738 54.3629C12.0164 54.4244 12.0607 54.4843 12.1067 54.5426L12.8355 53.9115Z" fill="#2C73FE"/>
<path d="M375.774 1.22955H35.105V73.7836H375.774V1.22955Z" fill="#2C73FE"/>
<path d="M375.774 1.22955H35.105V73.7836H375.774V1.22955Z" stroke="#2C73FE" stroke-width="0.805851"/>
<path d="M398.827 25.3925C398.827 12.0477 388.505 1.22951 375.773 1.22951V36.2024H398.827V25.3925Z" fill="#2C73FE" stroke="#2C73FE" stroke-width="0.805851"/>
<path d="M375.774 36.2024H398.827V38.8107H375.774V36.2024Z" fill="#2C73FE" stroke="#2C73FE" stroke-width="0.805851"/>
<path d="M398.827 49.6205C398.827 62.9653 388.505 73.7835 375.773 73.7835V38.8107H398.827V49.6205Z" fill="#2C73FE" stroke="#2C73FE" stroke-width="0.805851"/>
</g>
<defs>
<clipPath id="clip0_471_80">
<rect width="400" height="75" fill="white"/>
</clipPath>
</defs>
</svg>
