<svg width="500" height="100" viewBox="0 0 500 100" fill="none" xmlns="http://www.w3.org/2000/svg">
<path d="M15.0659 33.8569C15.0659 16.0636 27.9674 1.6394 43.882 1.6394V48.2698H15.0659V33.8569Z" fill="#2C73FE" stroke="#2C73FE" stroke-width="0.805851"/>
<path d="M43.882 48.2698H15.0659V51.7476H43.882V48.2698Z" fill="#2C73FE" stroke="#2C73FE" stroke-width="0.805851"/>
<path fill-rule="evenodd" clip-rule="evenodd" d="M15.5888 72.3028C15.2455 70.3144 15.0658 68.261 15.0658 66.1607V51.7476H43.8819V98.3781C36.9039 98.3781 30.5051 95.6051 25.5193 90.9908C20.5451 94.6958 12.569 98.2174 2.93262 96.2585C5.58674 94.9867 15.8241 87.3564 15.4449 72.0954C15.4908 72.1662 15.5389 72.2353 15.5888 72.3028Z" fill="#2C73FE"/>
<path d="M15.5885 72.3028L15.1329 72.7234L16.1686 72.1775L15.5885 72.3028ZM15.0655 51.7475V51.087H14.4746V51.7475H15.0655ZM43.8816 51.7475H44.4724V51.087H43.8816V51.7475ZM43.8816 98.378V99.0387H44.4724V98.378H43.8816ZM25.519 90.9908L25.8957 90.482L25.5571 90.1687L25.1914 90.4411L25.519 90.9908ZM2.93233 96.2585L2.69961 95.6515L0.895508 96.5159L2.82664 96.9083L2.93233 96.2585ZM15.4447 72.0954L15.9224 71.7069L14.8011 69.9833L14.854 72.1138L15.4447 72.0954ZM14.4746 66.1606C14.4746 68.3033 14.658 70.3985 15.0084 72.4279L16.1686 72.1775C15.8323 70.2303 15.6562 68.2188 15.6562 66.1606H14.4746ZM14.4746 51.7475V66.1606H15.6562V51.7475H14.4746ZM43.8816 51.087H15.0655V52.4082H43.8816V51.087ZM44.4724 98.378V51.7475H43.2908V98.378H44.4724ZM25.1422 91.4997C30.2301 96.2082 36.7609 99.0387 43.8816 99.0387V97.7175C37.0461 97.7175 30.7795 95.0018 25.8957 90.482L25.1422 91.4997ZM2.82664 96.9083C12.6512 98.9056 20.7807 95.3136 25.8464 91.5405L25.1914 90.4411C20.3087 94.0779 12.4862 97.5293 3.03802 95.6087L2.82664 96.9083ZM14.854 72.1138C15.0391 79.562 12.6368 85.1361 9.86462 89.0103C7.08087 92.9006 3.93616 95.0588 2.69961 95.6515L3.16506 96.8657C4.58263 96.1864 7.88365 93.8936 10.7873 89.8356C13.7025 85.7615 16.2293 79.8898 16.0351 72.0772L14.854 72.1138ZM16.0439 71.882C16.0017 71.8247 15.9611 71.7665 15.9224 71.7069L14.9668 72.4839C15.02 72.5659 15.0754 72.6457 15.1329 72.7234L16.0439 71.882Z" fill="#2C73FE"/>
<path d="M469.717 1.6394H43.8813V98.3781H469.717V1.6394Z" fill="#2C73FE"/>
<path d="M469.717 1.6394H43.8813V98.3781H469.717V1.6394Z" stroke="#2C73FE" stroke-width="0.805851"/>
<path d="M498.534 33.8567C498.534 16.0636 485.632 1.63934 469.717 1.63934V48.2698H498.534V33.8567Z" fill="#2C73FE" stroke="#2C73FE" stroke-width="0.805851"/>
<path d="M469.718 48.2698H498.534V51.7476H469.718V48.2698Z" fill="#2C73FE" stroke="#2C73FE" stroke-width="0.805851"/>
<path d="M498.534 66.1607C498.534 83.9538 485.632 98.3781 469.717 98.3781V51.7476H498.534V66.1607Z" fill="#2C73FE" stroke="#2C73FE" stroke-width="0.805851"/>
</svg>
