<svg width="450" height="675" viewBox="0 0 450 675" fill="none" xmlns="http://www.w3.org/2000/svg">
<g clip-path="url(#clip0_336_353)">
<path d="M450 225H0V675H450V225Z" fill="#232323"/>
<path d="M225 450C349.264 450 450 349.264 450 225C450 100.736 349.264 0 225 0C100.736 0 0 100.736 0 225C0 349.264 100.736 450 225 450Z" fill="#232323"/>
<path d="M449.55 230.999H40.5V644.85H449.55V230.999Z" fill="#2F2F2F"/>
<path d="M245.025 437.701C357.981 437.701 449.55 345.057 449.55 230.775C449.55 116.494 357.981 23.85 245.025 23.85C132.069 23.85 40.5 116.494 40.5 230.775C40.5 345.057 132.069 437.701 245.025 437.701Z" fill="#2F2F2F"/>
<path d="M449.1 237.6H87.75V611.1H449.1V237.6Z" fill="#353535"/>
<path d="M268.425 424.35C368.209 424.35 449.1 340.739 449.1 237.6C449.1 134.461 368.209 50.85 268.425 50.85C168.641 50.85 87.75 134.461 87.75 237.6C87.75 340.739 168.641 424.35 268.425 424.35Z" fill="#353535"/>
<path d="M449.55 246.445H126V583.2H449.55V246.445Z" fill="#3F3F3F"/>
<path d="M287.775 414.605C377.121 414.605 449.55 339.22 449.55 246.227C449.55 153.235 377.121 77.85 287.775 77.85C198.429 77.85 126 153.235 126 246.227C126 339.22 198.429 414.605 287.775 414.605Z" fill="#3F3F3F"/>
<path d="M449.55 256.5H160.2V558.9H449.55V256.5Z" fill="#454545"/>
<path d="M304.875 407.7C384.777 407.7 449.55 340.005 449.55 256.5C449.55 172.995 384.777 105.3 304.875 105.3C224.973 105.3 160.2 172.995 160.2 256.5C160.2 340.005 224.973 407.7 304.875 407.7Z" fill="#454545"/>
<path d="M451.35 265.345H189.45V537.3H451.35V265.345Z" fill="#4F4F4F"/>
<path d="M320.4 401.105C392.722 401.105 451.35 340.226 451.35 265.127C451.35 190.029 392.722 129.15 320.4 129.15C248.078 129.15 189.45 190.029 189.45 265.127C189.45 340.226 248.078 401.105 320.4 401.105Z" fill="#4F4F4F"/>
<path d="M454.05 274.95H216V517.95H454.05V274.95Z" fill="#555555"/>
<path d="M335.025 396.45C400.761 396.45 454.05 342.053 454.05 274.95C454.05 207.847 400.761 153.45 335.025 153.45C269.289 153.45 216 207.847 216 274.95C216 342.053 269.289 396.45 335.025 396.45Z" fill="#555555"/>
<path d="M454.05 286.65H240.3V500.4H454.05V286.65Z" fill="#5A5A5A"/>
<path d="M347.175 393.3C406.2 393.3 454.05 345.45 454.05 286.425C454.05 227.4 406.2 179.55 347.175 179.55C288.15 179.55 240.3 227.4 240.3 286.425C240.3 345.45 288.15 393.3 347.175 393.3Z" fill="#5A5A5A"/>
<path d="M454.5 292.5H263.25V483.75H454.5V292.5Z" fill="#636363"/>
<path d="M358.875 387.9C411.687 387.9 454.5 345.087 454.5 292.275C454.5 239.463 411.687 196.65 358.875 196.65C306.063 196.65 263.25 239.463 263.25 292.275C263.25 345.087 306.063 387.9 358.875 387.9Z" fill="#636363"/>
<path d="M453.15 299.7H284.4V468.45H453.15V299.7Z" fill="#696969"/>
<path d="M368.775 383.85C415.374 383.85 453.15 346.074 453.15 299.475C453.15 252.876 415.374 215.1 368.775 215.1C322.176 215.1 284.4 252.876 284.4 299.475C284.4 346.074 322.176 383.85 368.775 383.85Z" fill="#696969"/>
<g filter="url(#filter0_f_336_353)">
<path d="M450.45 307.8H304.2V454.05H450.45V307.8Z" fill="#6F6F6F"/>
<path d="M377.325 380.7C417.711 380.7 450.45 347.961 450.45 307.575C450.45 267.189 417.711 234.45 377.325 234.45C336.939 234.45 304.2 267.189 304.2 307.575C304.2 347.961 336.939 380.7 377.325 380.7Z" fill="#6F6F6F"/>
</g>
<g filter="url(#filter1_f_336_353)">
<path d="M451.35 315.9H320.85V441.9H451.35V315.9Z" fill="#757575"/>
<path d="M386.1 378.9C422.137 378.9 451.35 350.694 451.35 315.9C451.35 281.106 422.137 252.9 386.1 252.9C350.064 252.9 320.85 281.106 320.85 315.9C320.85 350.694 350.064 378.9 386.1 378.9Z" fill="#757575"/>
</g>
<g filter="url(#filter2_f_336_353)">
<path d="M450 321.15H333.9V431.55H450V321.15Z" fill="#797979"/>
<path d="M391.95 376.35C424.01 376.35 450 351.636 450 321.15C450 290.664 424.01 265.95 391.95 265.95C359.89 265.95 333.9 290.664 333.9 321.15C333.9 351.636 359.89 376.35 391.95 376.35Z" fill="#797979"/>
</g>
<g filter="url(#filter3_f_336_353)">
<path d="M450 326.85H345.6V423.45H450V326.85Z" fill="#7F7F7F"/>
<path d="M397.8 375.15C426.629 375.15 450 353.525 450 326.85C450 300.175 426.629 278.55 397.8 278.55C368.971 278.55 345.6 300.175 345.6 326.85C345.6 353.525 368.971 375.15 397.8 375.15Z" fill="#7F7F7F"/>
</g>
<g filter="url(#filter4_f_336_353)">
<path d="M450 331.95H356.4V416.25H450V331.95Z" fill="#838383"/>
<path d="M403.2 374.1C429.047 374.1 450 355.229 450 331.95C450 308.671 429.047 289.8 403.2 289.8C377.353 289.8 356.4 308.671 356.4 331.95C356.4 355.229 377.353 374.1 403.2 374.1Z" fill="#838383"/>
</g>
<g filter="url(#filter5_f_336_353)">
<path d="M450 335.25H364.95V409.95H450V335.25Z" fill="#898989"/>
<path d="M407.475 372.6C430.961 372.6 450 355.878 450 335.25C450 314.622 430.961 297.9 407.475 297.9C383.989 297.9 364.95 314.622 364.95 335.25C364.95 355.878 383.989 372.6 407.475 372.6Z" fill="#898989"/>
</g>
<g filter="url(#filter6_f_336_353)">
<path d="M450 338.85H372.15V404.55H450V338.85Z" fill="#8F8F8F"/>
<path d="M411.075 371.7C432.573 371.7 450 356.993 450 338.85C450 320.707 432.573 306 411.075 306C389.577 306 372.15 320.707 372.15 338.85C372.15 356.993 389.577 371.7 411.075 371.7Z" fill="#8F8F8F"/>
</g>
<g filter="url(#filter7_f_336_353)">
<path d="M450 341.4H379.35V399.6H450V341.4Z" fill="#959595"/>
<path d="M414.675 370.5C434.185 370.5 450 357.472 450 341.4C450 325.329 434.185 312.3 414.675 312.3C395.166 312.3 379.35 325.329 379.35 341.4C379.35 357.472 395.166 370.5 414.675 370.5Z" fill="#959595"/>
</g>
<g filter="url(#filter8_f_336_353)">
<path d="M448.65 347.843H385.65V394.2H448.65V347.843Z" fill="#9F9F9F"/>
<path d="M417.15 376.412C434.547 376.412 448.65 363.47 448.65 347.506C448.65 331.541 434.547 318.6 417.15 318.6C399.753 318.6 385.65 331.541 385.65 347.506C385.65 363.47 399.753 376.412 417.15 376.412Z" fill="#9F9F9F"/>
</g>
<g filter="url(#filter9_f_336_353)">
<path d="M445.05 350.511H391.95V388.8H445.05V350.511Z" fill="#A5A5A5"/>
<path d="M418.5 375.487C433.163 375.487 445.05 364.163 445.05 350.194C445.05 336.224 433.163 324.9 418.5 324.9C403.837 324.9 391.95 336.224 391.95 350.194C391.95 364.163 403.837 375.487 418.5 375.487Z" fill="#A5A5A5"/>
</g>
</g>
<defs>
<filter id="filter0_f_336_353" x="300.2" y="230.45" width="154.25" height="227.6" filterUnits="userSpaceOnUse" color-interpolation-filters="sRGB">
<feFlood flood-opacity="0" result="BackgroundImageFix"/>
<feBlend mode="normal" in="SourceGraphic" in2="BackgroundImageFix" result="shape"/>
<feGaussianBlur stdDeviation="2" result="effect1_foregroundBlur_336_353"/>
</filter>
<filter id="filter1_f_336_353" x="316.85" y="248.9" width="138.5" height="197" filterUnits="userSpaceOnUse" color-interpolation-filters="sRGB">
<feFlood flood-opacity="0" result="BackgroundImageFix"/>
<feBlend mode="normal" in="SourceGraphic" in2="BackgroundImageFix" result="shape"/>
<feGaussianBlur stdDeviation="2" result="effect1_foregroundBlur_336_353"/>
</filter>
<filter id="filter2_f_336_353" x="329.9" y="261.95" width="124.1" height="173.6" filterUnits="userSpaceOnUse" color-interpolation-filters="sRGB">
<feFlood flood-opacity="0" result="BackgroundImageFix"/>
<feBlend mode="normal" in="SourceGraphic" in2="BackgroundImageFix" result="shape"/>
<feGaussianBlur stdDeviation="2" result="effect1_foregroundBlur_336_353"/>
</filter>
<filter id="filter3_f_336_353" x="341.6" y="274.55" width="112.4" height="152.9" filterUnits="userSpaceOnUse" color-interpolation-filters="sRGB">
<feFlood flood-opacity="0" result="BackgroundImageFix"/>
<feBlend mode="normal" in="SourceGraphic" in2="BackgroundImageFix" result="shape"/>
<feGaussianBlur stdDeviation="2" result="effect1_foregroundBlur_336_353"/>
</filter>
<filter id="filter4_f_336_353" x="352.4" y="285.8" width="101.6" height="134.45" filterUnits="userSpaceOnUse" color-interpolation-filters="sRGB">
<feFlood flood-opacity="0" result="BackgroundImageFix"/>
<feBlend mode="normal" in="SourceGraphic" in2="BackgroundImageFix" result="shape"/>
<feGaussianBlur stdDeviation="2" result="effect1_foregroundBlur_336_353"/>
</filter>
<filter id="filter5_f_336_353" x="360.95" y="293.9" width="93.05" height="120.05" filterUnits="userSpaceOnUse" color-interpolation-filters="sRGB">
<feFlood flood-opacity="0" result="BackgroundImageFix"/>
<feBlend mode="normal" in="SourceGraphic" in2="BackgroundImageFix" result="shape"/>
<feGaussianBlur stdDeviation="2" result="effect1_foregroundBlur_336_353"/>
</filter>
<filter id="filter6_f_336_353" x="368.15" y="302" width="85.8501" height="106.55" filterUnits="userSpaceOnUse" color-interpolation-filters="sRGB">
<feFlood flood-opacity="0" result="BackgroundImageFix"/>
<feBlend mode="normal" in="SourceGraphic" in2="BackgroundImageFix" result="shape"/>
<feGaussianBlur stdDeviation="2" result="effect1_foregroundBlur_336_353"/>
</filter>
<filter id="filter7_f_336_353" x="375.35" y="308.3" width="78.6499" height="95.2999" filterUnits="userSpaceOnUse" color-interpolation-filters="sRGB">
<feFlood flood-opacity="0" result="BackgroundImageFix"/>
<feBlend mode="normal" in="SourceGraphic" in2="BackgroundImageFix" result="shape"/>
<feGaussianBlur stdDeviation="2" result="effect1_foregroundBlur_336_353"/>
</filter>
<filter id="filter8_f_336_353" x="381.65" y="314.6" width="71" height="83.6001" filterUnits="userSpaceOnUse" color-interpolation-filters="sRGB">
<feFlood flood-opacity="0" result="BackgroundImageFix"/>
<feBlend mode="normal" in="SourceGraphic" in2="BackgroundImageFix" result="shape"/>
<feGaussianBlur stdDeviation="2" result="effect1_foregroundBlur_336_353"/>
</filter>
<filter id="filter9_f_336_353" x="387.95" y="320.9" width="61.1001" height="71.9003" filterUnits="userSpaceOnUse" color-interpolation-filters="sRGB">
<feFlood flood-opacity="0" result="BackgroundImageFix"/>
<feBlend mode="normal" in="SourceGraphic" in2="BackgroundImageFix" result="shape"/>
<feGaussianBlur stdDeviation="2" result="effect1_foregroundBlur_336_353"/>
</filter>
<clipPath id="clip0_336_353">
<rect width="450" height="675" fill="white"/>
</clipPath>
</defs>
</svg>
